<svg width="625.57" height="144.4" viewBox="0 0 176.55 40.754" xmlns="http://www.w3.org/2000/svg"><g stroke-width=".265"><path d="m90.28 4.132v22.06c0 4.053.955 7.353 2.864 9.902 1.098 1.469 2.491 2.637 4.178 3.504 1.703.867 3.445 1.144 5.228 1.159 2.894.023 6.707-1.086 8.976-3.84 2.291-2.78 3.653-5.92 3.653-9.795 0-3.787-1.202-7.03-3.605-9.716-2.386-2.69-5.26-4.03-8.617-4.03-.541 0-2.386.06-2.386.06l.066 10.08s1.526.004 2.178.004c.923 0 1.703.371 2.339 1.115.637.725.955 1.628.955 2.708 0 1.044-.342 1.938-1.027 2.681-.668.725-1.488 1.089-2.459 1.089-2.276 0-3.414-1.761-3.414-5.283v-21.688h-8.928zm-90.28.259v36.24l9.692.106v-25.937h3.271c5.554 0 8.331 2.468 8.331 7.406 0 5.256-1.707 7.84-7.357 7.87l-2.67.014v10.644c1.32.005 2.381.023 2.971.023 5.01 0 9.03-1.651 12.21-5.12 3.183-3.469 4.776-7.945 4.776-13.433 0-5.734-1.863-10.273-5.585-13.618-3.135-2.796-7.472-4.195-13.01-4.195h-12.628zm62.45.024v36.34h8.928v-36.34h-8.928m-16.02 8.787c-3.597 0-6.62 1.328-9.07 3.982-2.451 2.637-3.676 5.893-3.676 9.769 0 3.805 1.225 7.06 3.676 9.769 2.451 2.69 5.403 4.03 8.857 4.03s6.398-1.345 8.833-4.03c2.451-2.69 3.676-5.946 3.676-9.769 0-3.77-1.209-7-3.628-9.69-2.402-2.708-5.292-4.061-8.666-4.061m127.38.424c-3.135 0-5.641 1.142-7.519 3.425-1.878 2.265-2.817 5.31-2.817 9.132v14.573h8.928v-12.662c0-2.761.812-4.141 2.435-4.141.509 0 1.703-.02 1.703-.02l.008-10.304s-2.038-.003-2.738-.003zm-15.66.0001c-3.135 0-5.642 1.141-7.52 3.424-1.878 2.265-2.817 5.31-2.817 9.132v14.573h8.928v-12.662c0-2.761.811-4.141 2.434-4.141.509 0 1.679-.028 1.679-.028v-10.296s-2-.002-2.704-.002m-27.977.026c-3.453 0-6.39 1.336-8.808 4.01-2.402 2.672-3.605 5.928-3.605 9.769 0 3.947 1.194 7.23 3.581 9.85 2.386 2.619 5.371 3.477 8.952 3.477h1.947l.041-9.373s-1.376.029-2.155.029c-.955 0-1.743-.354-2.364-1.061-.621-.708-.931-1.61-.931-2.708 0-1.044.342-1.947 1.026-2.708.684-.761 1.496-1.141 2.435-1.141 1.035 0 1.855.416 2.459 1.247.621.832.935 1.947.931 3.345l-.033 12.37h8.945l.017-13.09c0-4.336-1.114-7.752-3.342-10.247-2.212-2.513-5.244-3.77-9.09-3.77m-53.585.116v26.987h8.928v-26.987h-8.928m-30.395 9.228c.971 0 1.79.39 2.459 1.168.668.761 1 1.699 1 2.814 0 1.097-.342 2.035-1.027 2.814-.668.779-1.48 1.168-2.434 1.168-.939 0-1.751-.39-2.435-1.168-.668-.779-1-1.717-1-2.814 0-1.115.335-2.053 1-2.814.668-.779 1.48-1.168 2.435-1.168" fill="#263c5c"/><g fill="#007b8c"><path d="m153.43-.041l-2.088 9.501h.713l2.083-9.501h-.707m4.608 0c-.635 0-1.218.186-1.749.558-.527.368-.935.908-1.223 1.623-.285.71-.428 1.544-.428 2.5 0 .877.126 1.699.378 2.463.256.765.626 1.35 1.111 1.755.488.401 1.12.601 1.896.601.75 0 1.384-.261 1.901-.783.521-.527.881-1.289 1.081-2.288l-.953-.307c-.131.773-.382 1.356-.752 1.748s-.822.589-1.356.589c-.439 0-.847-.144-1.223-.432-.377-.288-.655-.723-.835-1.304-.177-.585-.265-1.268-.265-2.05 0-.606.075-1.193.226-1.761.151-.573.411-1.028.781-1.366.373-.338.837-.508 1.39-.508.481 0 .881.153 1.199.458.318.305.56.792.727 1.46l.939-.282c-.193-.848-.535-1.506-1.027-1.974-.491-.468-1.097-.702-1.818-.702m-26.586.157v9.188h5.374v-1.084h-4.421v-3.127h3.984v-1.079h-3.984v-2.814h4.254v-1.085h-5.207m6.705 0v9.188h.953v-4.08h1.105c.246 0 .422.015.53.044.147.046.292.127.433.244.144.117.306.322.486.614.18.293.409.715.688 1.266l.953 1.911h1.199l-1.253-2.5c-.249-.489-.513-.896-.791-1.222-.131-.15-.323-.303-.575-.458.691-.121 1.202-.405 1.533-.852s.496-.997.496-1.648c0-.506-.1-.968-.3-1.385-.2-.418-.466-.708-.8-.871-.334-.167-.822-.251-1.464-.251h-3.194m7.251 0v9.188h.953v-3.736h1.847c1.018 0 1.723-.269 2.113-.808.39-.543.584-1.204.584-1.987 0-.455-.073-.874-.221-1.254-.144-.38-.336-.675-.575-.884-.239-.213-.535-.357-.889-.432-.252-.059-.617-.088-1.095-.088h-2.717m16.788 0v9.188h.953v-4.08h1.105c.246 0 .423.015.531.044.147.046.291.127.432.244.144.117.307.322.487.614s.409.715.688 1.266l.953 1.911h1.199l-1.253-2.5c-.249-.489-.512-.896-.791-1.222-.131-.15-.323-.303-.575-.458.691-.121 1.202-.405 1.533-.852s.496-.997.496-1.648c0-.506-.1-.968-.3-1.385-.2-.418-.467-.708-.801-.871-.334-.167-.822-.251-1.464-.251h-3.193m7.222 0v9.188h.918v-7.821l2.083 7.821h.86l2.093-7.69v7.69h.919v-9.188h-1.283l-1.724 6.393c-.174.648-.301 1.139-.383 1.473-.072-.302-.186-.754-.344-1.36l-1.705-6.506h-1.435m-30.31 1.016h2.279c.534 0 .923.14 1.169.42.249.28.374.637.374 1.072 0 .297-.064.573-.192.827-.128.251-.315.435-.56.551-.246.113-.586.169-1.022.169h-2.048v-3.04m24.04 0h2.279c.534 0 .924.14 1.169.42.249.28.373.637.373 1.072 0 .297-.064.573-.191.827-.128.251-.315.435-.56.551-.246.113-.587.169-1.022.169h-2.048v-3.04m-16.786.069h1.842c.432 0 .728.027.889.081.249.088.449.269.599.545.154.272.231.601.231.984 0 .531-.129.942-.388 1.235s-.696.439-1.311.439h-1.862v-3.284"/><ellipse cx="81.02" cy="6.143" rx="4.619" ry="4.794"/></g></g></svg>
