<svg width="273" height="42" viewBox="0 0 273 42" fill="none" xmlns="http://www.w3.org/2000/svg">
<path d="M35.2135 23.2556L19.1407 39.3284C18.4321 40.037 18.9903 41.2523 19.9879 41.1732C24.2476 40.8406 28.4162 39.0473 31.6743 35.7892C34.9324 32.5311 36.7258 28.3624 37.0583 24.1028C37.1375 23.1012 35.9221 22.543 35.2135 23.2556Z" fill="#3A3A8C"/>
<path d="M35.3482 14.717L35.3205 14.6576C34.3704 12.6544 31.7457 12.1675 30.182 13.7352L9.62384 34.2933C8.05615 35.861 8.54309 38.4817 10.5463 39.4318L10.6056 39.4595C11.8091 40.0257 13.2382 39.7525 14.1804 38.8143L34.7029 18.2918C35.6412 17.3535 35.9143 15.9204 35.3482 14.717Z" fill="#3A3A8C"/>
<path d="M17.9213 5.96275C18.6299 5.25412 18.0717 4.03877 17.0741 4.11794C12.8144 4.45048 8.64576 6.24383 5.38766 9.50193C2.12956 12.76 0.336226 16.9287 0.0036852 21.1883C-0.0754911 22.1899 1.13985 22.7481 1.84848 22.0355L17.9213 5.96275Z" fill="#3A3A8C"/>
<path d="M4.71905 24.6381L2.35962 26.9976C1.4095 27.9477 1.15613 29.3926 1.73016 30.608L1.75391 30.6634C2.69215 32.6547 5.32476 33.11 6.88058 31.5542L9.25586 29.1789C10.5108 27.9239 10.5108 25.8931 9.25586 24.6381C8.00092 23.3832 5.97004 23.3832 4.71509 24.6381H4.71905Z" fill="#3A3A8C"/>
<path d="M16.7027 21.7362L27.4429 10.9959C28.9988 9.44012 28.5435 6.81146 26.5522 5.86927L26.4968 5.84551C25.2814 5.27149 23.8365 5.52089 22.8863 6.47496L12.1619 17.1994C10.907 18.4543 10.907 20.4852 12.1619 21.7402C13.4169 22.9951 15.4477 22.9951 16.7027 21.7402V21.7362Z" fill="#00A896"/>
<path d="M49.2139 7.77294H55.4609V10.7262C57.4799 8.31529 60.3817 7.28204 63.331 7.28204C70.1204 7.28204 74.4514 12.9907 74.4514 20.0255C74.4514 27.0603 70.0214 32.8679 63.2321 32.8679C60.3778 32.8679 57.5749 31.7356 55.8014 29.5702V39.4593H49.21V7.77294H49.2139ZM67.7134 20.073C67.7134 16.1854 65.2036 13.3826 61.6129 13.3826C58.2677 13.3826 55.7578 16.1379 55.7578 20.073C55.7578 24.008 58.2163 26.7634 61.6129 26.7634C65.2036 26.7634 67.7134 23.9605 67.7134 20.073Z" fill="#3A3A8C"/>
<mask id="mask0_694_4489" style="mask-type:luminance" maskUnits="userSpaceOnUse" x="49" y="7" width="26" height="33">
<path d="M49.2139 7.77294H55.4609V10.7262C57.4799 8.31529 60.3817 7.28204 63.331 7.28204C70.1204 7.28204 74.4514 12.9907 74.4514 20.0255C74.4514 27.0603 70.0214 32.8679 63.2321 32.8679C60.3778 32.8679 57.5749 31.7356 55.8014 29.5702V39.4593H49.21V7.77294H49.2139ZM67.7134 20.073C67.7134 16.1854 65.2036 13.3826 61.6129 13.3826C58.2677 13.3826 55.7578 16.1379 55.7578 20.073C55.7578 24.008 58.2163 26.7634 61.6129 26.7634C65.2036 26.7634 67.7134 23.9605 67.7134 20.073Z" fill="white"/>
</mask>
<g mask="url(#mask0_694_4489)">
<path d="M281.79 -3.60468H42.8398V53.6556H281.79V-3.60468Z" fill="#3A3A8C"/>
</g>
<path d="M77.9941 20.073C77.9941 12.9867 82.3251 7.28204 89.1144 7.28204C91.9687 7.28204 95.017 8.41426 96.7906 10.7737V7.77294H103.236V32.373H96.7906V29.4197C95.0685 31.7831 91.9687 32.8639 89.1144 32.8639C82.3251 32.8639 77.9941 27.1553 77.9941 20.073ZM96.6401 20.073C96.6401 16.2329 94.1817 13.3826 90.7851 13.3826C87.3884 13.3826 84.6845 16.2369 84.6845 20.073C84.6845 23.9091 87.2419 26.7634 90.7851 26.7634C94.3282 26.7634 96.6401 24.008 96.6401 20.073Z" fill="#3A3A8C"/>
<mask id="mask1_694_4489" style="mask-type:luminance" maskUnits="userSpaceOnUse" x="77" y="7" width="27" height="26">
<path d="M77.9941 20.073C77.9941 12.9867 82.3251 7.28204 89.1144 7.28204C91.9687 7.28204 95.017 8.41426 96.7906 10.7737V7.77294H103.236V32.373H96.7906V29.4197C95.0685 31.7831 91.9687 32.8639 89.1144 32.8639C82.3251 32.8639 77.9941 27.1553 77.9941 20.073ZM96.6401 20.073C96.6401 16.2329 94.1817 13.3826 90.7851 13.3826C87.3884 13.3826 84.6845 16.2369 84.6845 20.073C84.6845 23.9091 87.2419 26.7634 90.7851 26.7634C94.3282 26.7634 96.6401 24.008 96.6401 20.073Z" fill="white"/>
</mask>
<g mask="url(#mask1_694_4489)">
<path d="M281.972 -3.64346H43.0225V53.6168H281.972V-3.64346Z" fill="#3A3A8C"/>
</g>
<path d="M108.252 7.77294H114.744V12.4958C115.433 10.4808 117.943 7.28204 123.355 7.28204V14.4673C117.646 14.4673 114.843 17.0761 114.843 22.9312V32.377H108.252V7.77294Z" fill="#3A3A8C"/>
<mask id="mask2_694_4489" style="mask-type:luminance" maskUnits="userSpaceOnUse" x="108" y="7" width="16" height="26">
<path d="M108.252 7.7907H114.744V12.5136C115.433 10.4985 117.943 7.2998 123.355 7.2998V14.4851C117.646 14.4851 114.843 17.0939 114.843 22.949V32.3947H108.252V7.7907Z" fill="white"/>
</mask>
<g mask="url(#mask2_694_4489)">
<path d="M281.972 -3.6254H43.0225V53.6349H281.972V-3.6254Z" fill="#3A3A8C"/>
</g>
<path d="M125.667 29.5187L128.03 24.4514C129.705 25.7301 132.017 27.0603 135.707 27.0603C137.231 27.0603 139.741 26.4704 139.741 24.9938C139.741 23.5171 137.627 23.1727 135.509 22.5829C130.639 21.3042 126.653 19.681 126.653 14.9582C126.653 9.93841 131.574 7.28204 136.197 7.28204C140.232 7.28204 142.789 8.26779 145.35 9.74047L143.137 14.6613C140.726 13.4815 138.462 12.9392 136.3 12.9392C134.776 12.9392 133.347 13.628 133.347 14.6613C133.347 16.0389 135.414 16.4823 137.678 16.9732C141.859 17.959 146.435 19.7761 146.435 24.7958C146.435 30.8489 140.283 32.8639 135.711 32.8639C130.445 32.8639 127.053 30.7974 125.675 29.5187H125.667Z" fill="#3A3A8C"/>
<mask id="mask3_694_4489" style="mask-type:luminance" maskUnits="userSpaceOnUse" x="125" y="7" width="22" height="26">
<path d="M125.667 29.5187L128.03 24.4514C129.705 25.7301 132.017 27.0603 135.707 27.0603C137.231 27.0603 139.741 26.4704 139.741 24.9938C139.741 23.5171 137.627 23.1727 135.509 22.5829C130.639 21.3042 126.653 19.681 126.653 14.9582C126.653 9.93841 131.574 7.28204 136.197 7.28204C140.232 7.28204 142.789 8.26779 145.35 9.74047L143.137 14.6613C140.726 13.4815 138.462 12.9392 136.3 12.9392C134.776 12.9392 133.347 13.628 133.347 14.6613C133.347 16.0389 135.414 16.4823 137.678 16.9732C141.859 17.959 146.435 19.7761 146.435 24.7958C146.435 30.8489 140.283 32.8639 135.711 32.8639C130.445 32.8639 127.053 30.7974 125.675 29.5187H125.667Z" fill="white"/>
</mask>
<g mask="url(#mask3_694_4489)">
<path d="M281.972 -3.64325H43.0225V53.617H281.972V-3.64325Z" fill="#3A3A8C"/>
</g>
<path d="M149.63 20.073C149.63 12.9867 155.141 7.28204 162.373 7.28204C169.064 7.28204 174.329 12.9907 174.329 19.974C174.329 21.1537 174.182 22.3374 174.182 22.3374H156.324C157.112 25.7301 159.915 27.3572 163.165 27.3572C165.525 27.3572 167.987 26.6684 169.808 25.4372L172.266 30.16C169.511 31.9811 166.312 32.8639 163.118 32.8639C155.932 32.8639 149.638 28.1885 149.638 20.073H149.63ZM168.129 17.959C167.639 14.8592 165.176 12.7927 162.175 12.7927C159.175 12.7927 156.863 14.8592 156.221 17.959H168.129Z" fill="#3A3A8C"/>
<mask id="mask4_694_4489" style="mask-type:luminance" maskUnits="userSpaceOnUse" x="149" y="7" width="26" height="26">
<path d="M149.63 20.073C149.63 12.9867 155.141 7.28204 162.373 7.28204C169.064 7.28204 174.329 12.9907 174.329 19.974C174.329 21.1537 174.182 22.3374 174.182 22.3374H156.324C157.112 25.7301 159.915 27.3572 163.165 27.3572C165.525 27.3572 167.987 26.6684 169.808 25.4372L172.266 30.16C169.511 31.9811 166.312 32.8639 163.118 32.8639C155.932 32.8639 149.638 28.1885 149.638 20.073H149.63ZM168.129 17.959C167.639 14.8592 165.176 12.7927 162.175 12.7927C159.175 12.7927 156.863 14.8592 156.221 17.959H168.129Z" fill="white"/>
</mask>
<g mask="url(#mask4_694_4489)">
<path d="M281.972 -3.64346H43.0225V53.6168H281.972V-3.64346Z" fill="#3A3A8C"/>
</g>
<path d="M177.915 20.073C177.915 12.9867 182.246 7.28204 189.035 7.28204C191.89 7.28204 194.938 8.41426 196.711 10.7737V7.77294H203.156V32.373H196.711V29.4197C194.989 31.7831 191.89 32.8639 189.035 32.8639C182.246 32.8639 177.915 27.1553 177.915 20.073ZM196.561 20.073C196.561 16.2329 194.103 13.3826 190.706 13.3826C187.309 13.3826 184.605 16.2369 184.605 20.073C184.605 23.9091 187.163 26.7634 190.706 26.7634C194.249 26.7634 196.561 24.008 196.561 20.073Z" fill="#3A3A8C"/>
<mask id="mask5_694_4489" style="mask-type:luminance" maskUnits="userSpaceOnUse" x="177" y="7" width="27" height="26">
<path d="M177.915 20.073C177.915 12.9867 182.246 7.28204 189.035 7.28204C191.89 7.28204 194.938 8.41426 196.711 10.7737V7.77294H203.156V32.373H196.711V29.4197C194.989 31.7831 191.89 32.8639 189.035 32.8639C182.246 32.8639 177.915 27.1553 177.915 20.073ZM196.561 20.073C196.561 16.2329 194.103 13.3826 190.706 13.3826C187.309 13.3826 184.605 16.2369 184.605 20.073C184.605 23.9091 187.163 26.7634 190.706 26.7634C194.249 26.7634 196.561 24.008 196.561 20.073Z" fill="white"/>
</mask>
<g mask="url(#mask5_694_4489)">
<path d="M281.972 -3.64325H43.0225V53.617H281.972V-3.64325Z" fill="#3A3A8C"/>
</g>
<path d="M214.424 29.4179V32.3712H208.177V0H214.768V10.5304C216.542 8.41644 219.345 7.28422 222.199 7.28422C228.988 7.28422 233.414 12.9928 233.414 20.0751C233.414 27.1575 229.083 32.8661 222.294 32.8661C219.341 32.8661 216.241 31.7853 214.424 29.4219V29.4179ZM226.724 20.0712C226.724 16.2311 224.166 13.3808 220.623 13.3808C217.08 13.3808 214.768 16.2351 214.768 20.0712C214.768 23.9073 217.278 26.7616 220.623 26.7616C224.166 26.7616 226.724 23.9587 226.724 20.0712Z" fill="#3A3A8C"/>
<mask id="mask6_694_4489" style="mask-type:luminance" maskUnits="userSpaceOnUse" x="208" y="0" width="26" height="33">
<path d="M214.426 29.4179V32.3712H208.179V0H214.77V10.5304C216.544 8.41644 219.347 7.28422 222.201 7.28422C228.99 7.28422 233.416 12.9928 233.416 20.0751C233.416 27.1575 229.085 32.8661 222.296 32.8661C219.343 32.8661 216.243 31.7853 214.426 29.4219V29.4179ZM226.726 20.0712C226.726 16.2311 224.168 13.3808 220.625 13.3808C217.082 13.3808 214.77 16.2351 214.77 20.0712C214.77 23.9073 217.28 26.7616 220.625 26.7616C224.168 26.7616 226.726 23.9587 226.726 20.0712Z" fill="white"/>
</mask>
<g mask="url(#mask6_694_4489)">
<path d="M281.974 -3.64355H43.0244V53.6167H281.974V-3.64355Z" fill="#3A3A8C"/>
</g>
<path d="M237.694 0H244.286V32.3712H237.694V0Z" fill="#3A3A8C"/>
<mask id="mask7_694_4489" style="mask-type:luminance" maskUnits="userSpaceOnUse" x="237" y="0" width="8" height="33">
<path d="M237.696 0H244.288V32.3712H237.696V0Z" fill="white"/>
</mask>
<g mask="url(#mask7_694_4489)">
<path d="M281.975 -3.64355H43.0254V53.6167H281.975V-3.64355Z" fill="#3A3A8C"/>
</g>
<path d="M247.663 19.8271C247.663 12.7408 253.174 7.03613 260.407 7.03613C267.097 7.03613 272.362 12.7447 272.362 19.7281C272.362 20.9078 272.216 22.0915 272.216 22.0915H254.357C255.145 25.4842 257.948 27.1113 261.194 27.1113C263.558 27.1113 266.016 26.4224 267.837 25.1912L270.296 29.9141C267.54 31.7352 264.342 32.618 261.143 32.618C253.958 32.618 247.663 27.9426 247.663 19.8271ZM266.163 17.7131C265.672 14.6133 263.209 12.5468 260.209 12.5468C257.208 12.5468 254.896 14.6133 254.255 17.7131H266.163Z" fill="#3A3A8C"/>
<mask id="mask8_694_4489" style="mask-type:luminance" maskUnits="userSpaceOnUse" x="247" y="7" width="26" height="26">
<path d="M247.665 19.8266C247.665 12.7403 253.176 7.03564 260.408 7.03564C267.099 7.03564 272.364 12.7443 272.364 19.7276C272.364 20.9073 272.218 22.091 272.218 22.091H254.359C255.147 25.4837 257.95 27.1108 261.196 27.1108C263.56 27.1108 266.018 26.422 267.839 25.1908L270.298 29.9136C267.542 31.7347 264.344 32.6175 261.145 32.6175C253.96 32.6175 247.665 27.9421 247.665 19.8266ZM266.165 17.7126C265.674 14.6128 263.211 12.5463 260.211 12.5463C257.21 12.5463 254.898 14.6128 254.256 17.7126H266.165Z" fill="white"/>
</mask>
<g mask="url(#mask8_694_4489)">
<path d="M281.805 -4.62891H42.8555V52.6314H281.805V-4.62891Z" fill="#3A3A8C"/>
</g>
</svg>
