<svg width="64" height="64" viewBox="0 0 64 64" fill="none" xmlns="http://www.w3.org/2000/svg">
  <rect width="64" height="64" rx="12" fill="#3B82F6"/>
  <path d="M16 24C16 20.6863 18.6863 18 22 18H42C45.3137 18 48 20.6863 48 24V40C48 43.3137 45.3137 46 42 46H22C18.6863 46 16 43.3137 16 40V24Z" fill="white"/>
  <path d="M24 28H40V32H24V28Z" fill="#3B82F6"/>
  <path d="M24 34H36V38H24V34Z" fill="#3B82F6"/>
  <circle cx="32" cy="42" r="2" fill="#3B82F6"/>
  <path d="M20 22L44 22" stroke="#3B82F6" stroke-width="2" stroke-linecap="round"/>
  <path d="M20 26L44 26" stroke="#3B82F6" stroke-width="2" stroke-linecap="round"/>
  <path d="M20 30L44 30" stroke="#3B82F6" stroke-width="2" stroke-linecap="round"/>
  <path d="M20 34L44 34" stroke="#3B82F6" stroke-width="2" stroke-linecap="round"/>
  <path d="M20 38L44 38" stroke="#3B82F6" stroke-width="2" stroke-linecap="round"/>
</svg>
